<?xml version="1.0" encoding="UTF-8" standalone="no" ?>
<!DOCTYPE svg PUBLIC "-//W3C//DTD SVG 1.1//EN" "http://www.w3.org/Graphics/SVG/1.1/DTD/svg11.dtd">
<svg xmlns="http://www.w3.org/2000/svg" xmlns:xlink="http://www.w3.org/1999/xlink" version="1.1" width="207" height="49" viewBox="0 0 207 49" xml:space="preserve">
<desc>Created with Fabric.js 5.2.4</desc>
<defs>
</defs>
<g transform="matrix(0 0 0 0 0 0)" id="2f79df94-2746-46e9-a0ca-42fea36d9225"  >
</g>
<g transform="matrix(1 0 0 1 103.5 24.5)" id="db9eba16-04f0-4e74-a2d4-8b28d9fda1e9"  >
<rect style="stroke: none; stroke-width: 1; stroke-dasharray: none; stroke-linecap: butt; stroke-dashoffset: 0; stroke-linejoin: miter; stroke-miterlimit: 4; fill: rgb(255,255,255); fill-rule: nonzero; opacity: 1; visibility: hidden;" vector-effect="non-scaling-stroke"  x="-103.5" y="-24.5" rx="0" ry="0" width="207" height="49" />
</g>
<g transform="matrix(1 0 0 1 23.52 24.5)"  >
<path style="stroke: none; stroke-width: 1; stroke-dasharray: none; stroke-linecap: butt; stroke-dashoffset: 0; stroke-linejoin: miter; stroke-miterlimit: 4; fill: rgb(95,111,255); fill-rule: nonzero; opacity: 1;" vector-effect="non-scaling-stroke"  transform=" translate(-23.01, -26)" d="M 22.9997 3 C 35.7026 3 45.9997 13.2971 45.9997 26 L 45.9997 42.1 C 45.9997 43.93 45.2728 45.685 43.9788 46.979 C 42.6848 48.273 40.9297 49 39.0997 49 L 24.1497 49 L 24.1497 38.9099 C 24.1497 36.6076 24.29 34.2225 25.4975 32.2629 C 26.362 30.8586 27.5185 29.6566 28.8884 28.7385 C 30.2583 27.8204 31.8096 27.2077 33.4371 26.9418 L 33.8776 26.8705 C 34.0592 26.8085 34.2168 26.6912 34.3284 26.5351 C 34.44 26.379 34.5 26.1919 34.5 26 C 34.5 25.8081 34.44 25.621 34.3284 25.4649 C 34.2168 25.3088 34.0592 25.1915 33.8776 25.1294 L 33.4371 25.0581 C 31.0591 24.6697 28.8632 23.5441 27.1594 21.8403 C 25.4556 20.1365 24.3301 17.9406 23.9416 15.5626 L 23.8703 15.1222 C 23.8082 14.9406 23.6909 14.7829 23.5348 14.6713 C 23.3787 14.5597 23.1916 14.4997 22.9997 14.4997 C 22.8078 14.4997 22.6208 14.5597 22.4647 14.6713 C 22.3086 14.7829 22.1913 14.9406 22.1292 15.1222 L 22.0579 15.5626 C 21.7922 17.1902 21.1795 18.7415 20.2614 20.1114 C 19.3433 21.4814 18.1412 22.6378 16.7368 23.5022 C 14.7772 24.7097 12.3921 24.85 10.0898 24.85 L 0.0273438 24.85 C 0.628794 12.6818 10.6832 3 22.9997 3 Z" stroke-linecap="round" />
</g>
<g transform="matrix(1 0 0 1 23.5 24.5)"  >
<path style="stroke: none; stroke-width: 1; stroke-dasharray: none; stroke-linecap: butt; stroke-dashoffset: 0; stroke-linejoin: miter; stroke-miterlimit: 4; fill: rgb(95,111,255); fill-rule: nonzero; opacity: 1;" vector-effect="non-scaling-stroke"  transform=" translate(-23, -26)" d="M 0 27.15 L 10.0901 27.15 C 12.3924 27.15 14.7775 27.2903 16.7371 28.4978 C 18.2689 29.4417 19.5583 30.7311 20.5022 32.2629 C 21.7097 34.2225 21.85 36.6076 21.85 38.9099 L 21.85 49 L 6.9 49 C 5.07001 49 3.31496 48.273 2.02096 46.979 C 0.726962 45.685 0 43.93 0 42.1 L 0 27.15 Z M 46 5.3 C 46 5.91 45.7577 6.49501 45.3263 6.92635 C 44.895 7.35768 44.31 7.6 43.7 7.6 C 43.09 7.6 42.505 7.35768 42.0737 6.92635 C 41.6423 6.49501 41.4 5.91 41.4 5.3 C 41.4 4.69 41.6423 4.10499 42.0737 3.67365 C 42.505 3.24232 43.09 3 43.7 3 C 44.31 3 44.895 3.24232 45.3263 3.67365 C 45.7577 4.10499 46 4.69 46 5.3 Z" stroke-linecap="round" />
</g>
<g transform="matrix(1 0 0 1 105.4 40.22)"  >
<path style="stroke: none; stroke-width: 1; stroke-dasharray: none; stroke-linecap: butt; stroke-dashoffset: 0; stroke-linejoin: miter; stroke-miterlimit: 4; fill: rgb(95,95,95); fill-rule: nonzero; opacity: 1;" vector-effect="non-scaling-stroke"  transform=" translate(-104.9, -41.73)" d="M 59.98 46 L 59.98 44.548 L 62.128 44.548 C 62.672 44.548 63.148 44.436 63.556 44.212 C 63.964 43.98 64.28 43.656 64.504 43.24 C 64.736 42.824 64.852 42.332 64.852 41.764 C 64.852 41.212 64.736 40.732 64.504 40.324 C 64.272 39.908 63.952 39.588 63.544 39.364 C 63.136 39.132 62.664 39.016 62.128 39.016 L 59.944 39.016 L 59.944 37.564 L 62.152 37.564 C 62.776 37.564 63.352 37.668 63.88 37.876 C 64.416 38.084 64.88 38.38 65.272 38.764 C 65.672 39.14 65.98 39.584 66.196 40.096 C 66.42 40.608 66.532 41.168 66.532 41.776 C 66.532 42.384 66.42 42.948 66.196 43.468 C 65.98 43.98 65.676 44.428 65.284 44.812 C 64.892 45.188 64.428 45.48 63.892 45.688 C 63.364 45.896 62.792 46 62.176 46 L 59.98 46 Z M 58.864 46 L 58.864 37.564 L 60.496 37.564 L 60.496 46 L 58.864 46 Z M 70.0848 46.12 C 69.5568 46.12 69.0808 45.988 68.6568 45.724 C 68.2328 45.46 67.9008 45.1 67.6608 44.644 C 67.4208 44.188 67.3008 43.676 67.3008 43.108 C 67.3008 42.532 67.4208 42.016 67.6608 41.56 C 67.9008 41.104 68.2328 40.744 68.6568 40.48 C 69.0808 40.216 69.5568 40.084 70.0848 40.084 C 70.5008 40.084 70.8728 40.168 71.2008 40.336 C 71.5288 40.504 71.7888 40.74 71.9808 41.044 C 72.1808 41.34 72.2888 41.676 72.3048 42.052 L 72.3048 44.14 C 72.2888 44.524 72.1808 44.864 71.9808 45.16 C 71.7888 45.456 71.5288 45.692 71.2008 45.868 C 70.8728 46.036 70.5008 46.12 70.0848 46.12 Z M 70.3728 44.668 C 70.8128 44.668 71.1688 44.524 71.4408 44.236 C 71.7128 43.94 71.8488 43.56 71.8488 43.096 C 71.8488 42.792 71.7848 42.524 71.6568 42.292 C 71.5368 42.052 71.3648 41.868 71.1408 41.74 C 70.9248 41.604 70.6688 41.536 70.3728 41.536 C 70.0848 41.536 69.8288 41.604 69.6048 41.74 C 69.3888 41.868 69.2168 42.052 69.0888 42.292 C 68.9688 42.524 68.9088 42.792 68.9088 43.096 C 68.9088 43.408 68.9688 43.684 69.0888 43.924 C 69.2168 44.156 69.3888 44.34 69.6048 44.476 C 69.8288 44.604 70.0848 44.668 70.3728 44.668 Z M 71.7648 46 L 71.7648 44.44 L 72.0168 43.024 L 71.7648 41.632 L 71.7648 40.204 L 73.3248 40.204 L 73.3248 46 L 71.7648 46 Z M 76.7075 46.132 C 76.3795 46.132 76.0555 46.088 75.7355 46 C 75.4235 45.912 75.1355 45.792 74.8715 45.64 C 74.6075 45.48 74.3795 45.288 74.1875 45.064 L 75.1235 44.116 C 75.3235 44.34 75.5555 44.508 75.8195 44.62 C 76.0835 44.732 76.3755 44.788 76.6955 44.788 C 76.9515 44.788 77.1435 44.752 77.2715 44.68 C 77.4075 44.608 77.4755 44.5 77.4755 44.356 C 77.4755 44.196 77.4035 44.072 77.2595 43.984 C 77.1235 43.896 76.9435 43.824 76.7195 43.768 C 76.4955 43.704 76.2595 43.636 76.0115 43.564 C 75.7715 43.484 75.5395 43.384 75.3155 43.264 C 75.0915 43.136 74.9075 42.964 74.7635 42.748 C 74.6275 42.524 74.5595 42.236 74.5595 41.884 C 74.5595 41.516 74.6475 41.196 74.8235 40.924 C 75.0075 40.652 75.2675 40.44 75.6035 40.288 C 75.9395 40.136 76.3355 40.06 76.7915 40.06 C 77.2715 40.06 77.7035 40.144 78.0875 40.312 C 78.4795 40.48 78.8035 40.732 79.0595 41.068 L 78.1115 42.016 C 77.9355 41.8 77.7355 41.644 77.5115 41.548 C 77.2955 41.452 77.0595 41.404 76.8035 41.404 C 76.5715 41.404 76.3915 41.44 76.2635 41.512 C 76.1435 41.584 76.0835 41.684 76.0835 41.812 C 76.0835 41.956 76.1515 42.068 76.2875 42.148 C 76.4315 42.228 76.6155 42.3 76.8395 42.364 C 77.0635 42.42 77.2955 42.488 77.5355 42.568 C 77.7835 42.64 78.0155 42.744 78.2315 42.88 C 78.4555 43.016 78.6355 43.196 78.7715 43.42 C 78.9155 43.644 78.9875 43.932 78.9875 44.284 C 78.9875 44.852 78.7835 45.304 78.3755 45.64 C 77.9675 45.968 77.4115 46.132 76.7075 46.132 Z M 83.9476 46 L 83.9476 42.676 C 83.9476 42.332 83.8396 42.052 83.6236 41.836 C 83.4076 41.62 83.1276 41.512 82.7836 41.512 C 82.5596 41.512 82.3596 41.56 82.1836 41.656 C 82.0076 41.752 81.8676 41.888 81.7636 42.064 C 81.6676 42.24 81.6196 42.444 81.6196 42.676 L 81.0076 42.364 C 81.0076 41.908 81.1036 41.512 81.2956 41.176 C 81.4876 40.832 81.7516 40.564 82.0876 40.372 C 82.4316 40.18 82.8236 40.084 83.2636 40.084 C 83.7036 40.084 84.0916 40.18 84.4276 40.372 C 84.7716 40.564 85.0396 40.828 85.2316 41.164 C 85.4236 41.5 85.5196 41.888 85.5196 42.328 L 85.5196 46 L 83.9476 46 Z M 80.0476 46 L 80.0476 37.324 L 81.6196 37.324 L 81.6196 46 L 80.0476 46 Z M 90.0018 46.12 C 89.5858 46.12 89.2098 46.032 88.8738 45.856 C 88.5378 45.68 88.2698 45.44 88.0698 45.136 C 87.8698 44.832 87.7618 44.492 87.7458 44.116 L 87.7458 42.052 C 87.7618 41.676 87.8698 41.34 88.0698 41.044 C 88.2778 40.74 88.5498 40.504 88.8858 40.336 C 89.2218 40.168 89.5938 40.084 90.0018 40.084 C 90.5378 40.084 91.0178 40.216 91.4418 40.48 C 91.8658 40.744 92.1978 41.104 92.4378 41.56 C 92.6858 42.016 92.8098 42.532 92.8098 43.108 C 92.8098 43.676 92.6858 44.188 92.4378 44.644 C 92.1978 45.1 91.8658 45.46 91.4418 45.724 C 91.0178 45.988 90.5378 46.12 90.0018 46.12 Z M 89.7378 44.668 C 90.0258 44.668 90.2778 44.604 90.4938 44.476 C 90.7178 44.34 90.8898 44.156 91.0098 43.924 C 91.1378 43.684 91.2018 43.408 91.2018 43.096 C 91.2018 42.792 91.1378 42.524 91.0098 42.292 C 90.8898 42.052 90.7178 41.868 90.4938 41.74 C 90.2698 41.604 90.0138 41.536 89.7258 41.536 C 89.4378 41.536 89.1818 41.604 88.9578 41.74 C 88.7418 41.868 88.5698 42.052 88.4418 42.292 C 88.3218 42.524 88.2618 42.792 88.2618 43.096 C 88.2618 43.408 88.3218 43.684 88.4418 43.924 C 88.5698 44.156 88.7458 44.34 88.9698 44.476 C 89.1938 44.604 89.4498 44.668 89.7378 44.668 Z M 86.7858 46 L 86.7858 37.324 L 88.3578 37.324 L 88.3578 41.632 L 88.0938 43.024 L 88.3458 44.44 L 88.3458 46 L 86.7858 46 Z M 96.5645 46.12 C 95.9805 46.12 95.4525 45.988 94.9805 45.724 C 94.5165 45.452 94.1445 45.088 93.8645 44.632 C 93.5925 44.168 93.4565 43.652 93.4565 43.084 C 93.4565 42.516 93.5925 42.008 93.8645 41.56 C 94.1365 41.104 94.5085 40.744 94.9805 40.48 C 95.4525 40.208 95.9765 40.072 96.5525 40.072 C 97.1445 40.072 97.6725 40.208 98.1365 40.48 C 98.6085 40.744 98.9805 41.104 99.2525 41.56 C 99.5245 42.008 99.6605 42.516 99.6605 43.084 C 99.6605 43.652 99.5245 44.168 99.2525 44.632 C 98.9805 45.088 98.6085 45.452 98.1365 45.724 C 97.6725 45.988 97.1485 46.12 96.5645 46.12 Z M 96.5525 44.656 C 96.8485 44.656 97.1085 44.592 97.3325 44.464 C 97.5645 44.328 97.7405 44.144 97.8605 43.912 C 97.9885 43.672 98.0525 43.4 98.0525 43.096 C 98.0525 42.792 97.9885 42.524 97.8605 42.292 C 97.7325 42.06 97.5565 41.88 97.3325 41.752 C 97.1085 41.616 96.8485 41.548 96.5525 41.548 C 96.2645 41.548 96.0085 41.616 95.7845 41.752 C 95.5605 41.88 95.3845 42.06 95.2565 42.292 C 95.1285 42.524 95.0645 42.792 95.0645 43.096 C 95.0645 43.4 95.1285 43.672 95.2565 43.912 C 95.3845 44.144 95.5605 44.328 95.7845 44.464 C 96.0085 44.592 96.2645 44.656 96.5525 44.656 Z M 103.097 46.12 C 102.569 46.12 102.093 45.988 101.669 45.724 C 101.245 45.46 100.913 45.1 100.673 44.644 C 100.433 44.188 100.313 43.676 100.313 43.108 C 100.313 42.532 100.433 42.016 100.673 41.56 C 100.913 41.104 101.245 40.744 101.669 40.48 C 102.093 40.216 102.569 40.084 103.097 40.084 C 103.513 40.084 103.885 40.168 104.213 40.336 C 104.541 40.504 104.801 40.74 104.993 41.044 C 105.193 41.34 105.301 41.676 105.317 42.052 L 105.317 44.14 C 105.301 44.524 105.193 44.864 104.993 45.16 C 104.801 45.456 104.541 45.692 104.213 45.868 C 103.885 46.036 103.513 46.12 103.097 46.12 Z M 103.385 44.668 C 103.825 44.668 104.181 44.524 104.453 44.236 C 104.725 43.94 104.861 43.56 104.861 43.096 C 104.861 42.792 104.797 42.524 104.669 42.292 C 104.549 42.052 104.377 41.868 104.153 41.74 C 103.937 41.604 103.681 41.536 103.385 41.536 C 103.097 41.536 102.841 41.604 102.617 41.74 C 102.401 41.868 102.229 42.052 102.101 42.292 C 101.981 42.524 101.921 42.792 101.921 43.096 C 101.921 43.408 101.981 43.684 102.101 43.924 C 102.229 44.156 102.401 44.34 102.617 44.476 C 102.841 44.604 103.097 44.668 103.385 44.668 Z M 104.777 46 L 104.777 44.44 L 105.029 43.024 L 104.777 41.632 L 104.777 40.204 L 106.337 40.204 L 106.337 46 L 104.777 46 Z M 107.727 46 L 107.727 40.204 L 109.299 40.204 L 109.299 46 L 107.727 46 Z M 109.299 42.796 L 108.687 42.388 C 108.759 41.676 108.967 41.116 109.311 40.708 C 109.655 40.292 110.151 40.084 110.799 40.084 C 111.079 40.084 111.331 40.132 111.555 40.228 C 111.779 40.316 111.983 40.464 112.167 40.672 L 111.183 41.8 C 111.095 41.704 110.987 41.632 110.859 41.584 C 110.739 41.536 110.599 41.512 110.439 41.512 C 110.103 41.512 109.827 41.62 109.611 41.836 C 109.403 42.044 109.299 42.364 109.299 42.796 Z M 115.003 46.12 C 114.467 46.12 113.987 45.988 113.563 45.724 C 113.139 45.46 112.803 45.1 112.555 44.644 C 112.315 44.188 112.195 43.676 112.195 43.108 C 112.195 42.532 112.315 42.016 112.555 41.56 C 112.803 41.104 113.135 40.744 113.551 40.48 C 113.975 40.216 114.459 40.084 115.003 40.084 C 115.419 40.084 115.791 40.168 116.119 40.336 C 116.455 40.504 116.723 40.74 116.923 41.044 C 117.131 41.34 117.243 41.676 117.259 42.052 L 117.259 44.116 C 117.243 44.492 117.135 44.832 116.935 45.136 C 116.735 45.44 116.467 45.68 116.131 45.856 C 115.795 46.032 115.419 46.12 115.003 46.12 Z M 115.267 44.668 C 115.563 44.668 115.819 44.604 116.035 44.476 C 116.259 44.34 116.431 44.156 116.551 43.924 C 116.679 43.684 116.743 43.408 116.743 43.096 C 116.743 42.792 116.679 42.524 116.551 42.292 C 116.431 42.052 116.259 41.868 116.035 41.74 C 115.819 41.604 115.567 41.536 115.279 41.536 C 114.983 41.536 114.723 41.604 114.499 41.74 C 114.283 41.876 114.111 42.06 113.983 42.292 C 113.863 42.524 113.803 42.792 113.803 43.096 C 113.803 43.408 113.863 43.684 113.983 43.924 C 114.111 44.156 114.287 44.34 114.511 44.476 C 114.735 44.604 114.987 44.668 115.267 44.668 Z M 118.219 46 L 116.659 46 L 116.659 44.44 L 116.911 43.024 L 116.647 41.632 L 116.647 37.324 L 118.219 37.324 L 118.219 46 Z M 123.322 42.868 L 123.322 41.536 L 125.278 41.536 C 125.534 41.536 125.766 41.484 125.974 41.38 C 126.182 41.276 126.346 41.128 126.466 40.936 C 126.586 40.736 126.646 40.496 126.646 40.216 C 126.646 39.944 126.586 39.708 126.466 39.508 C 126.346 39.308 126.182 39.156 125.974 39.052 C 125.766 38.948 125.534 38.896 125.278 38.896 L 123.322 38.896 L 123.322 37.564 L 125.446 37.564 C 125.982 37.564 126.462 37.672 126.886 37.888 C 127.318 38.104 127.658 38.412 127.906 38.812 C 128.154 39.204 128.278 39.672 128.278 40.216 C 128.278 40.76 128.154 41.232 127.906 41.632 C 127.658 42.024 127.318 42.328 126.886 42.544 C 126.462 42.76 125.982 42.868 125.446 42.868 L 123.322 42.868 Z M 122.122 46 L 122.122 37.564 L 123.754 37.564 L 123.754 46 L 122.122 46 Z M 131.503 46.12 C 130.975 46.12 130.499 45.988 130.075 45.724 C 129.651 45.46 129.319 45.1 129.079 44.644 C 128.839 44.188 128.719 43.676 128.719 43.108 C 128.719 42.532 128.839 42.016 129.079 41.56 C 129.319 41.104 129.651 40.744 130.075 40.48 C 130.499 40.216 130.975 40.084 131.503 40.084 C 131.919 40.084 132.291 40.168 132.619 40.336 C 132.947 40.504 133.207 40.74 133.399 41.044 C 133.599 41.34 133.707 41.676 133.723 42.052 L 133.723 44.14 C 133.707 44.524 133.599 44.864 133.399 45.16 C 133.207 45.456 132.947 45.692 132.619 45.868 C 132.291 46.036 131.919 46.12 131.503 46.12 Z M 131.791 44.668 C 132.231 44.668 132.587 44.524 132.859 44.236 C 133.131 43.94 133.267 43.56 133.267 43.096 C 133.267 42.792 133.203 42.524 133.075 42.292 C 132.955 42.052 132.783 41.868 132.559 41.74 C 132.343 41.604 132.087 41.536 131.791 41.536 C 131.503 41.536 131.247 41.604 131.023 41.74 C 130.807 41.868 130.635 42.052 130.507 42.292 C 130.387 42.524 130.327 42.792 130.327 43.096 C 130.327 43.408 130.387 43.684 130.507 43.924 C 130.635 44.156 130.807 44.34 131.023 44.476 C 131.247 44.604 131.503 44.668 131.791 44.668 Z M 133.183 46 L 133.183 44.44 L 133.435 43.024 L 133.183 41.632 L 133.183 40.204 L 134.743 40.204 L 134.743 46 L 133.183 46 Z M 140.034 46 L 140.034 42.676 C 140.034 42.332 139.926 42.052 139.71 41.836 C 139.494 41.62 139.214 41.512 138.87 41.512 C 138.646 41.512 138.446 41.56 138.27 41.656 C 138.094 41.752 137.954 41.888 137.85 42.064 C 137.754 42.24 137.706 42.444 137.706 42.676 L 137.094 42.364 C 137.094 41.908 137.19 41.512 137.382 41.176 C 137.582 40.832 137.854 40.564 138.198 40.372 C 138.55 40.18 138.946 40.084 139.386 40.084 C 139.81 40.084 140.19 40.192 140.526 40.408 C 140.862 40.616 141.126 40.892 141.318 41.236 C 141.51 41.572 141.605 41.936 141.605 42.328 L 141.605 46 L 140.034 46 Z M 136.134 46 L 136.134 40.204 L 137.706 40.204 L 137.706 46 L 136.134 46 Z M 145.644 46.12 C 145.036 46.12 144.496 45.992 144.024 45.736 C 143.552 45.472 143.176 45.112 142.896 44.656 C 142.624 44.2 142.488 43.68 142.488 43.096 C 142.488 42.52 142.62 42.008 142.884 41.56 C 143.156 41.104 143.524 40.744 143.988 40.48 C 144.452 40.208 144.968 40.072 145.536 40.072 C 146.096 40.072 146.588 40.2 147.012 40.456 C 147.444 40.704 147.78 41.048 148.02 41.488 C 148.268 41.92 148.392 42.412 148.392 42.964 C 148.392 43.068 148.384 43.176 148.368 43.288 C 148.36 43.392 148.34 43.512 148.308 43.648 L 143.436 43.66 L 143.436 42.484 L 147.576 42.472 L 146.94 42.964 C 146.924 42.62 146.86 42.332 146.748 42.1 C 146.644 41.868 146.488 41.692 146.28 41.572 C 146.08 41.444 145.832 41.38 145.536 41.38 C 145.224 41.38 144.952 41.452 144.72 41.596 C 144.488 41.732 144.308 41.928 144.18 42.184 C 144.06 42.432 144 42.728 144 43.072 C 144 43.424 144.064 43.732 144.192 43.996 C 144.328 44.252 144.52 44.452 144.768 44.596 C 145.016 44.732 145.304 44.8 145.632 44.8 C 145.928 44.8 146.196 44.752 146.436 44.656 C 146.676 44.552 146.884 44.4 147.06 44.2 L 147.984 45.124 C 147.704 45.452 147.36 45.7 146.952 45.868 C 146.552 46.036 146.116 46.12 145.644 46.12 Z M 149.364 46 L 149.364 37.324 L 150.936 37.324 L 150.936 46 L 149.364 46 Z" stroke-linecap="round" />
</g>
<g transform="matrix(1 0 0 0.66 122.7 24.5)" style="" id="e30099e0-cf3b-4f26-ac03-2e93b0dea2b6"  >
		<text xml:space="preserve" font-family="Lato" font-size="40" font-style="normal" font-weight="900" style="stroke: none; stroke-width: 1; stroke-dasharray: none; stroke-linecap: butt; stroke-dashoffset: 0; stroke-linejoin: miter; stroke-miterlimit: 4; fill: rgb(0,11,109); fill-rule: nonzero; opacity: 1; white-space: pre;" ><tspan x="-72.21" y="12.57" >DocNow</tspan></text>
</g>
</svg>